<svg xmlns="http://www.w3.org/2000/svg" viewBox="-14 -72.312 335.288 84.624" width="335.288" height="84.624">

<g transform="translate(0 0)">
  <path d="M21.924-60.312L18.060-19.656L7.224-19.656L3.444-60.312L21.924-60.312ZM19.446-14.784Q22.092-12.264 22.092-8.400Q22.092-4.536 19.404-2.058Q16.716 0.420 12.684 0.420Q8.652 0.420 6.006-2.058Q3.360-4.536 3.360-8.400Q3.360-12.264 5.964-14.784Q8.568-17.304 12.684-17.304Q16.800-17.304 19.446-14.784Z" fill="#4CAF6E" transform="translate(-3.3600000000000003 0)"></path>
  <path d="M21.756-21.588L21.756 0L5.880 0L5.880-60.312L46.956-60.312L46.956-46.536L21.756-46.536L21.756-35.364L42.840-35.364L42.840-21.588L21.756-21.588Z" fill="#1A1917" transform="translate(18.212000000000003 0)"></path>
</g>
<rect x="87.168" y="-56" width="1" height="60" fill="#D9D4C9"></rect>
<g transform="translate(110.168 0)" fill="#1A1917"><path d="M39.816 0L29.624 0L13.608-25.088L13.608 0L3.920 0L3.920-40.208L15.288-40.208L30.128-16.968L30.128-40.208L39.816-40.208L39.816 0Z" transform="translate(-3.92 0)"></path><path d="M28.168-4.004Q23.632 0.560 16.968 0.560Q10.304 0.560 5.768-4.004Q1.232-8.568 1.232-15.064Q1.232-21.560 5.768-26.124Q10.304-30.688 16.968-30.688Q23.632-30.688 28.168-26.124Q32.704-21.560 32.704-15.064Q32.704-8.568 28.168-4.004ZM12.880-9.856Q14.560-8.008 16.968-8.008Q19.376-8.008 21.056-9.856Q22.736-11.704 22.736-15.064Q22.736-18.424 21.056-20.244Q19.376-22.064 16.968-22.064Q14.560-22.064 12.880-20.244Q11.200-18.424 11.200-15.064Q11.200-11.704 12.880-9.856Z" transform="translate(41.104000000000006 0)"></path><path d="M23.352-9.408L23.352-9.408L23.352-1.064Q20.440 0.560 16.520 0.560L16.520 0.560Q11.424 0.560 8.596-2.324Q5.768-5.208 5.768-10.360L5.768-10.360L5.768-21.784L0.168-21.784L0.168-30.128L5.768-30.128L5.768-38.976L15.344-38.976L15.344-30.128L23.576-30.128L23.576-21.784L15.344-21.784L15.344-12.600Q15.344-8.344 19.208-8.344L19.208-8.344Q21.672-8.344 23.352-9.408Z" transform="translate(74.70400000000001 0)"></path><path d="M14.504-14.392L14.504 0L3.920 0L3.920-40.208L31.304-40.208L31.304-31.024L14.504-31.024L14.504-23.576L28.560-23.576L28.560-14.392L14.504-14.392Z" transform="translate(94.24800000000002 0)"></path><path d="M28.504 0L20.776 0L20.776-2.912Q17.696 0.560 12.152 0.560L12.152 0.560Q7.448 0.560 4.564-2.044Q1.680-4.648 1.680-8.904L1.680-8.904Q1.680-13.328 5.124-15.652Q8.568-17.976 15.064-17.976L15.064-17.976Q17.584-17.976 19.488-17.640L19.488-17.640L19.488-19.096Q19.488-21.056 18.396-22.120Q17.304-23.184 15.288-23.184L15.288-23.184Q11.256-23.184 10.752-19.096L10.752-19.096L2.128-19.096Q2.576-24.360 6.160-27.524Q9.744-30.688 15.344-30.688L15.344-30.688Q21.560-30.688 25.032-27.496Q28.504-24.304 28.504-18.592L28.504-18.592L28.504 0ZM10.696-9.184L10.696-9.184Q10.696-7.728 11.676-6.888Q12.656-6.048 14.392-6.048L14.392-6.048Q16.800-6.048 18.144-7.112Q19.488-8.176 19.488-10.024L19.488-10.024L19.488-11.928Q17.472-12.320 15.680-12.320L15.680-12.320Q10.696-12.320 10.696-9.184Z" transform="translate(128.072 0)"></path><path d="M14-37.128L14-37.128Q14-34.776 12.264-33.236Q10.528-31.696 7.840-31.696Q5.152-31.696 3.416-33.236Q1.680-34.776 1.680-37.128L1.680-37.128Q1.680-39.536 3.388-41.076Q5.096-42.616 7.840-42.616Q10.584-42.616 12.292-41.076Q14-39.536 14-37.128ZM12.712-30.128L12.712 0L3.136 0L3.136-30.128L12.712-30.128Z" transform="translate(158.032 0)"></path><path d="M12.712-13.888L12.712-13.888L12.712 0L3.136 0L3.136-30.128L11.928-30.128L11.928-24.808Q13.608-27.384 16.856-28.868Q20.104-30.352 23.800-30.352L23.800-30.352L23.800-20.384Q18.088-20.944 15.400-19.740Q12.712-18.536 12.712-13.888Z" transform="translate(171.02400000000003 0)"></path></g>
</svg>