<svg width="500" height="500" viewBox="0 0 500 500" fill="none" xmlns="http://www.w3.org/2000/svg">
<rect width="500" height="500" rx="50" fill="url(#paint0_linear_2002_14)"/>
<g filter="url(#filter0_d_2002_14)">
<path d="M84.1364 230H63.0455L95.1818 136.909H120.545L152.636 230H131.545L108.227 158.182H107.5L84.1364 230ZM82.8182 193.409H132.636V208.773H82.8182V193.409ZM185.955 231.136C180.652 231.136 175.848 229.773 171.545 227.045C167.273 224.288 163.879 220.242 161.364 214.909C158.879 209.545 157.636 202.97 157.636 195.182C157.636 187.182 158.924 180.53 161.5 175.227C164.076 169.894 167.5 165.909 171.773 163.273C176.076 160.606 180.788 159.273 185.909 159.273C189.818 159.273 193.076 159.939 195.682 161.273C198.318 162.576 200.439 164.212 202.045 166.182C203.682 168.121 204.924 170.03 205.773 171.909H206.364V136.909H225.682V230H206.591V218.818H205.773C204.864 220.758 203.576 222.682 201.909 224.591C200.273 226.47 198.136 228.03 195.5 229.273C192.894 230.515 189.712 231.136 185.955 231.136ZM192.091 215.727C195.212 215.727 197.848 214.879 200 213.182C202.182 211.455 203.848 209.045 205 205.955C206.182 202.864 206.773 199.242 206.773 195.091C206.773 190.939 206.197 187.333 205.045 184.273C203.894 181.212 202.227 178.848 200.045 177.182C197.864 175.515 195.212 174.682 192.091 174.682C188.909 174.682 186.227 175.545 184.045 177.273C181.864 179 180.212 181.394 179.091 184.455C177.97 187.515 177.409 191.061 177.409 195.091C177.409 199.152 177.97 202.742 179.091 205.864C180.242 208.955 181.894 211.379 184.045 213.136C186.227 214.864 188.909 215.727 192.091 215.727ZM299.693 180.091L281.966 181.182C281.663 179.667 281.011 178.303 280.011 177.091C279.011 175.848 277.693 174.864 276.057 174.136C274.451 173.379 272.527 173 270.284 173C267.284 173 264.754 173.636 262.693 174.909C260.633 176.152 259.602 177.818 259.602 179.909C259.602 181.576 260.269 182.985 261.602 184.136C262.936 185.288 265.223 186.212 268.466 186.909L281.102 189.455C287.89 190.848 292.951 193.091 296.284 196.182C299.617 199.273 301.284 203.333 301.284 208.364C301.284 212.939 299.936 216.955 297.239 220.409C294.572 223.864 290.905 226.561 286.239 228.5C281.602 230.409 276.254 231.364 270.193 231.364C260.951 231.364 253.587 229.439 248.102 225.591C242.648 221.712 239.451 216.439 238.511 209.773L257.557 208.773C258.133 211.591 259.527 213.742 261.739 215.227C263.951 216.682 266.784 217.409 270.239 217.409C273.633 217.409 276.36 216.758 278.42 215.455C280.511 214.121 281.572 212.409 281.602 210.318C281.572 208.561 280.83 207.121 279.375 206C277.92 204.848 275.678 203.97 272.648 203.364L260.557 200.955C253.739 199.591 248.663 197.227 245.33 193.864C242.027 190.5 240.375 186.212 240.375 181C240.375 176.515 241.587 172.652 244.011 169.409C246.466 166.167 249.905 163.667 254.33 161.909C258.784 160.152 263.996 159.273 269.966 159.273C278.784 159.273 285.723 161.136 290.784 164.864C295.875 168.591 298.845 173.667 299.693 180.091ZM84.1364 363H63.0455L95.1818 269.909H120.545L152.636 363H131.545L108.227 291.182H107.5L84.1364 363ZM82.8182 326.409H132.636V341.773H82.8182V326.409ZM191.682 390.636C185.409 390.636 180.03 389.773 175.545 388.045C171.091 386.348 167.545 384.03 164.909 381.091C162.273 378.152 160.561 374.848 159.773 371.182L177.682 368.773C178.227 370.167 179.091 371.47 180.273 372.682C181.455 373.894 183.015 374.864 184.955 375.591C186.924 376.348 189.318 376.727 192.136 376.727C196.348 376.727 199.818 375.697 202.545 373.636C205.303 371.606 206.682 368.197 206.682 363.409V350.636H205.864C205.015 352.576 203.742 354.409 202.045 356.136C200.348 357.864 198.167 359.273 195.5 360.364C192.833 361.455 189.652 362 185.955 362C180.712 362 175.939 360.788 171.636 358.364C167.364 355.909 163.955 352.167 161.409 347.136C158.894 342.076 157.636 335.682 157.636 327.955C157.636 320.045 158.924 313.439 161.5 308.136C164.076 302.833 167.5 298.864 171.773 296.227C176.076 293.591 180.788 292.273 185.909 292.273C189.818 292.273 193.091 292.939 195.727 294.273C198.364 295.576 200.485 297.212 202.091 299.182C203.727 301.121 204.985 303.03 205.864 304.909H206.591V293.182H225.818V363.682C225.818 369.621 224.364 374.591 221.455 378.591C218.545 382.591 214.515 385.591 209.364 387.591C204.242 389.621 198.348 390.636 191.682 390.636ZM192.091 347.455C195.212 347.455 197.848 346.682 200 345.136C202.182 343.561 203.848 341.318 205 338.409C206.182 335.47 206.773 331.955 206.773 327.864C206.773 323.773 206.197 320.227 205.045 317.227C203.894 314.197 202.227 311.848 200.045 310.182C197.864 308.515 195.212 307.682 192.091 307.682C188.909 307.682 186.227 308.545 184.045 310.273C181.864 311.97 180.212 314.333 179.091 317.364C177.97 320.394 177.409 323.894 177.409 327.864C177.409 331.894 177.97 335.379 179.091 338.318C180.242 341.227 181.894 343.485 184.045 345.091C186.227 346.667 188.909 347.455 192.091 347.455ZM273.045 364.364C265.864 364.364 259.682 362.909 254.5 360C249.348 357.061 245.379 352.909 242.591 347.545C239.803 342.152 238.409 335.773 238.409 328.409C238.409 321.227 239.803 314.924 242.591 309.5C245.379 304.076 249.303 299.848 254.364 296.818C259.455 293.788 265.424 292.273 272.273 292.273C276.879 292.273 281.167 293.015 285.136 294.5C289.136 295.955 292.621 298.152 295.591 301.091C298.591 304.03 300.924 307.727 302.591 312.182C304.258 316.606 305.091 321.788 305.091 327.727V333.045H246.136V321.045H286.864C286.864 318.258 286.258 315.788 285.045 313.636C283.833 311.485 282.152 309.803 280 308.591C277.879 307.348 275.409 306.727 272.591 306.727C269.652 306.727 267.045 307.409 264.773 308.773C262.53 310.106 260.773 311.909 259.5 314.182C258.227 316.424 257.576 318.924 257.545 321.682V333.091C257.545 336.545 258.182 339.53 259.455 342.045C260.758 344.561 262.591 346.5 264.955 347.864C267.318 349.227 270.121 349.909 273.364 349.909C275.515 349.909 277.485 349.606 279.273 349C281.061 348.394 282.591 347.485 283.864 346.273C285.136 345.061 286.106 343.576 286.773 341.818L304.682 343C303.773 347.303 301.909 351.061 299.091 354.273C296.303 357.455 292.697 359.939 288.273 361.727C283.879 363.485 278.803 364.364 273.045 364.364ZM337.091 322.636V363H317.727V293.182H336.182V305.5H337C338.545 301.439 341.136 298.227 344.773 295.864C348.409 293.47 352.818 292.273 358 292.273C362.848 292.273 367.076 293.333 370.682 295.455C374.288 297.576 377.091 300.606 379.091 304.545C381.091 308.455 382.091 313.121 382.091 318.545V363H362.727V322C362.758 317.727 361.667 314.394 359.455 312C357.242 309.576 354.197 308.364 350.318 308.364C347.712 308.364 345.409 308.924 343.409 310.045C341.439 311.167 339.894 312.803 338.773 314.955C337.682 317.076 337.121 319.636 337.091 322.636ZM434.489 293.182V307.727H392.443V293.182H434.489ZM401.989 276.455H421.352V341.545C421.352 343.333 421.625 344.727 422.17 345.727C422.716 346.697 423.473 347.379 424.443 347.773C425.443 348.167 426.595 348.364 427.898 348.364C428.807 348.364 429.716 348.288 430.625 348.136C431.534 347.955 432.231 347.818 432.716 347.727L435.761 362.136C434.792 362.439 433.428 362.788 431.67 363.182C429.913 363.606 427.777 363.864 425.261 363.955C420.595 364.136 416.504 363.515 412.989 362.091C409.504 360.667 406.792 358.455 404.852 355.455C402.913 352.455 401.958 348.667 401.989 344.091V276.455Z" fill="url(#paint1_linear_2002_14)"/>
</g>
<defs>
<filter id="filter0_d_2002_14" x="59.0455" y="136.909" width="380.716" height="261.727" filterUnits="userSpaceOnUse" color-interpolation-filters="sRGB">
<feFlood flood-opacity="0" result="BackgroundImageFix"/>
<feColorMatrix in="SourceAlpha" type="matrix" values="0 0 0 0 0 0 0 0 0 0 0 0 0 0 0 0 0 0 127 0" result="hardAlpha"/>
<feOffset dy="4"/>
<feGaussianBlur stdDeviation="2"/>
<feComposite in2="hardAlpha" operator="out"/>
<feColorMatrix type="matrix" values="0 0 0 0 0 0 0 0 0 0 0 0 0 0 0 0 0 0 0.25 0"/>
<feBlend mode="normal" in2="BackgroundImageFix" result="effect1_dropShadow_2002_14"/>
<feBlend mode="normal" in="SourceGraphic" in2="effect1_dropShadow_2002_14" result="shape"/>
</filter>
<linearGradient id="paint0_linear_2002_14" x1="0" y1="0" x2="500" y2="500" gradientUnits="userSpaceOnUse">
<stop stop-color="white"/>
<stop offset="0.477" stop-color="#CECECE"/>
<stop offset="1" stop-color="#999999"/>
</linearGradient>
<linearGradient id="paint1_linear_2002_14" x1="60" y1="250" x2="440" y2="250" gradientUnits="userSpaceOnUse">
<stop/>
<stop offset="1" stop-color="#666666"/>
</linearGradient>
</defs>
</svg>
